<svg xmlns="http://www.w3.org/2000/svg" fill="none" viewBox="0 0 24 24">
  <defs/>
  <path fill="#A259FF" d="M16.92 19.94a5.32 5.32 0 01-5.48-5.28c0-.28.22-.5.5-.5s.5.22.5.5a4.3 4.3 0 004.48 4.27c.24 0 .64-.03 1.04-.1a.5.5 0 01.58.41.5.5 0 01-.41.58c-.57.11-1.07.12-1.21.12z"/>
  <path fill="#33A853" d="M9.75 21.79a.47.47 0 01-.35-.15A10.1 10.1 0 017.39 19a8.88 8.88 0 01-1.05-4.34A5.54 5.54 0 0112 9.27a5.54 5.54 0 015.66 5.39.5.5 0 01-.5.5.5.5 0 01-.5-.5c0-2.42-2.09-4.39-4.66-4.39-2.57 0-4.66 1.97-4.66 4.39 0 1.44.32 2.77.93 3.85a9.47 9.47 0 001.85 2.42c.19.2.19.51 0 .71a.55.55 0 01-.37.15z"/>
  <path fill="#1E72E8" d="M14.91 22a7.8 7.8 0 01-3.85-2.12 7.3 7.3 0 01-2.17-5.22 3.02 3.02 0 013.08-2.94c1.7 0 3.08 1.32 3.08 2.94 0 1.07.93 1.94 2.08 1.94s2.08-.87 2.08-1.94c0-3.77-3.25-6.83-7.25-6.83a7.3 7.3 0 00-6.61 4.03 6.43 6.43 0 00-.59 2.8c0 .78.07 2.01.67 3.61.1.26-.03.55-.29.64a.5.5 0 01-.64-.29 11.14 11.14 0 01-.73-3.96c0-1.2.23-2.29.68-3.24a8.3 8.3 0 017.51-4.6c4.55 0 8.25 3.51 8.25 7.83a3.02 3.02 0 01-3.08 2.94 3.02 3.02 0 01-3.08-2.94c0-1.07-.93-1.94-2.08-1.94s-2.08.87-2.08 1.94a6.3 6.3 0 001.87 4.51 6.8 6.8 0 003.27 1.85.5.5 0 01.35.61.49.49 0 01-.47.38z"/>
  <path fill="#F29900" d="M3.5 9.72a.5.5 0 01-.41-.79c.99-1.4 2.25-2.5 3.75-3.27a11.54 11.54 0 0110.31-.01c1.5.77 2.76 1.86 3.75 3.25a.5.5 0 01-.12.7.5.5 0 01-.7-.12 9.39 9.39 0 00-3.39-2.94 10.54 10.54 0 00-9.4.01c-1.36.7-2.5 1.7-3.4 2.96a.44.44 0 01-.39.21z"/>
  <path fill="#EA4436" d="M17.81 4.47a.46.46 0 01-.23-.06A11.44 11.44 0 0012.01 3c-1.98 0-3.86.47-5.57 1.41a.5.5 0 01-.68-.2.5.5 0 01.2-.68A12.56 12.56 0 0112.01 2c2.13 0 3.99.47 6.03 1.52.25.13.34.43.21.67a.49.49 0 01-.44.28z"/>
</svg>
